<?xml version="1.0" encoding="utf-8"?>
<!-- Generator: Adobe Illustrator 24.0.1, SVG Export Plug-In . SVG Version: 6.00 Build 0)  -->
<svg version="1.1" id="Ebene_1" xmlns="http://www.w3.org/2000/svg" xmlns:xlink="http://www.w3.org/1999/xlink" x="0px" y="0px"
	 viewBox="0 0 575 556" style="enable-background:new 0 0 575 556;" xml:space="preserve">
<style type="text/css">
	.st0{fill:#A1A0A0;}
	.st1{fill:#5E5F5F;}
	.st2{fill:#F6C602;}
	.st3{fill:#D1A805;}
</style>
<g>
	<path class="st0" d="M310.22,233.38c18.18,12.72,132.33,92.57,192.12,134.17c17.18-32.56,18.77-73.55,6.41-115.57
		c-12.71-25.75-28.03-47.33-43.07-64.79L327.97,230.1C319.5,232.74,313.59,233.75,310.22,233.38z"/>
	<path class="st1" d="M508.67,251.65c0.03,0.11,0.05,0.21,0.09,0.32c12.36,42.02,10.77,83.01-6.41,115.57
		c-4.29,8.13-9.52,15.76-15.78,22.73c-57.86,64.25-179.14,49.37-270.89-33.24C123.92,274.42,96.44,155.36,154.29,91.1
		c32.09-35.64,83.7-46.94,138.96-35.82C198.19,17.96,102.59,26.95,48.2,87.35c-78.69,87.39-41.32,249.32,83.47,361.68
		c124.79,112.36,289.74,132.6,368.43,45.21C553.6,434.83,553.45,340.97,508.67,251.65z"/>
	<path class="st2" d="M321,216.24l3.43-2.5l95.92-69.87l58.9-42.9l0.37,0.17l-13.33-80.43c-3.15-19-14.14-21.27-24.55-5.05
		L314.96,213.13c-5.53,8.61-8.09,14.54-7.98,17.66C307.13,227.97,311.71,223.01,321,216.24z"/>
	<path class="st3" d="M552.91,135.39l-73.29-34.24l-0.37-0.17l-58.9,42.9l-95.92,69.87l-3.43,2.5
		c-9.29,6.77-13.87,11.74-14.02,14.55c0.01,0.3,0.04,0.59,0.1,0.83c0.3,0.87,1.21,1.43,2.71,1.68c0.15,0.02,0.27,0.06,0.43,0.08
		c3.37,0.37,9.28-0.63,17.75-3.27l137.72-42.92l85.53-26.65C569.6,154.8,570.37,143.54,552.91,135.39z"/>
</g>
</svg>
